<?xml version="1.0" standalone="no"?>
<!DOCTYPE svg PUBLIC "-//W3C//DTD SVG 20010904//EN"
 "http://www.w3.org/TR/2001/REC-SVG-20010904/DTD/svg10.dtd">
<svg version="1.0" xmlns="http://www.w3.org/2000/svg"
 width="1063.000000pt" height="1063.000000pt" viewBox="0 0 1063.000000 1063.000000"
 preserveAspectRatio="xMidYMid meet">
<metadata>
Created by potrace 1.14, written by Peter Selinger 2001-2017
</metadata>
<g transform="translate(0.000000,1063.000000) scale(0.100000,-0.100000)"
fill="#000000" stroke="none">
<path d="M1861 9969 c-68 -10 -158 -25 -200 -33 -42 -9 -91 -18 -109 -21 -57
-9 -262 -65 -316 -86 -165 -64 -306 -142 -538 -297 -255 -171 -298 -212 -339
-317 -42 -105 -52 -187 -52 -420 0 -270 6 -346 32 -420 l20 -58 -53 -101 c-80
-153 -142 -325 -201 -556 -3 -11 -17 -87 -21 -110 -3 -14 -9 -47 -14 -75 -5
-27 -12 -72 -16 -100 -3 -27 -8 -58 -10 -68 -2 -10 -6 -53 -10 -95 -3 -42 -8
-88 -10 -102 -25 -192 -24 -1323 1 -1483 2 -12 6 -89 10 -172 3 -82 8 -166 10
-185 1 -19 6 -87 9 -150 4 -63 9 -133 11 -155 3 -22 7 -85 11 -140 3 -55 7
-118 9 -140 1 -22 6 -85 9 -140 4 -55 9 -120 11 -145 8 -87 15 -196 20 -280 8
-143 33 -325 59 -415 2 -5 6 -23 11 -40 8 -34 53 -162 85 -245 12 -30 50 -113
85 -185 67 -139 75 -149 251 -300 110 -95 122 -105 177 -144 26 -19 47 -36 47
-37 0 -1 -15 2 -32 9 -57 19 -133 12 -195 -19 -165 -84 -259 -334 -183 -488
39 -81 69 -101 364 -246 154 -76 306 -149 336 -163 30 -14 123 -57 205 -97 83
-40 175 -84 205 -97 30 -14 98 -46 150 -70 52 -25 122 -58 155 -73 33 -15 95
-44 138 -64 175 -82 227 -106 337 -156 63 -29 153 -70 198 -91 46 -22 85 -39
87 -39 2 0 39 -16 82 -36 116 -54 622 -274 743 -323 58 -24 120 -50 138 -58
71 -31 219 -83 269 -94 66 -15 130 -3 220 43 91 46 184 117 382 295 39 35 54
38 116 23 61 -15 319 -48 425 -55 114 -8 336 -8 440 0 136 10 195 15 220 20
14 2 62 9 108 15 46 6 138 22 205 35 l122 23 54 -47 c432 -369 504 -401 726
-317 89 34 277 110 375 153 19 8 44 19 55 23 154 65 732 325 980 440 50 23
110 51 135 62 78 35 529 248 660 310 296 142 852 422 930 468 152 91 169 120
166 278 -5 237 -104 345 -298 328 -39 -3 -75 -9 -81 -12 -7 -3 -3 1 8 10 11 8
25 19 30 23 6 5 42 33 80 62 39 30 81 65 95 77 14 12 37 33 52 46 181 159 181
160 273 373 85 197 126 339 159 540 8 50 17 131 20 180 4 50 9 115 11 145 2
30 7 89 10 130 12 172 14 199 21 280 7 90 8 99 18 250 4 52 8 118 10 145 3 28
7 97 11 155 3 58 8 125 10 150 2 25 7 101 11 170 3 69 8 148 9 175 26 417 26
1323 0 1463 -1 10 -6 49 -9 87 -6 60 -26 202 -41 285 -47 267 -136 532 -247
734 -26 48 -36 76 -32 90 4 12 7 22 6 23 0 2 4 17 9 35 14 45 20 516 8 603
-12 83 -51 204 -84 254 -37 58 -77 90 -315 248 -342 229 -531 314 -815 369
-11 2 -42 8 -70 14 -27 5 -63 12 -80 15 -16 3 -41 7 -55 10 -14 3 -38 7 -55
10 -16 3 -41 7 -55 10 -112 19 -345 26 -449 12 -183 -23 -321 -87 -476 -222
-63 -54 -139 -121 -168 -147 -28 -27 -41 -33 -62 -28 -5 1 -23 4 -40 6 -16 2
-46 6 -65 9 -109 17 -168 26 -190 30 -14 2 -79 11 -145 20 -66 9 -123 19 -126
21 -6 4 -417 7 -2610 19 -855 5 -1009 4 -1085 -9 -49 -8 -109 -17 -134 -20
-25 -3 -54 -8 -65 -10 -11 -2 -40 -7 -65 -11 -25 -3 -57 -8 -71 -11 -19 -3
-33 4 -55 27 -42 45 -229 208 -299 261 -65 49 -153 88 -273 120 -109 29 -360
32 -531 7z"/>
</g>
</svg>
